<svg xmlns="http://www.w3.org/2000/svg" xmlns:xlink="http://www.w3.org/1999/xlink" width="500" zoomAndPan="magnify" viewBox="0 0 375 374.999991" height="500" preserveAspectRatio="xMidYMid meet" version="1.0"><defs><clipPath id="7d614b1b98"><path d="M 112.5 112.5 L 262.5 112.5 L 262.5 262.5 L 112.5 262.5 Z M 112.5 112.5 " clip-rule="nonzero"/></clipPath><clipPath id="5da2cd5ba5"><path d="M 112.5 112.5 L 188 112.5 L 188 262.5 L 112.5 262.5 Z M 112.5 112.5 " clip-rule="nonzero"/></clipPath></defs><g clip-path="url(#7d614b1b98)"><path fill="#ffc44d" d="M 118.082031 112.152344 C 116.582031 112.152344 115.152344 112.796875 114.160156 113.921875 C 113.164062 115.046875 112.703125 116.542969 112.890625 118.03125 L 126.84375 229.660156 C 127.058594 231.398438 128.128906 232.910156 129.695312 233.691406 L 185.507812 261.597656 C 186.980469 262.335938 188.714844 262.335938 190.1875 261.597656 L 246.003906 233.691406 C 247.566406 232.910156 248.636719 231.398438 248.855469 229.660156 L 262.808594 118.03125 C 262.996094 116.542969 262.53125 115.046875 261.539062 113.921875 C 260.546875 112.796875 259.117188 112.152344 257.617188 112.152344 Z M 118.082031 112.152344 " fill-opacity="1" fill-rule="nonzero"/></g><g clip-path="url(#5da2cd5ba5)"><path fill="#e5b045" d="M 187.847656 112.152344 L 187.847656 262.152344 C 187.046875 262.152344 186.246094 261.96875 185.507812 261.597656 L 129.695312 233.691406 C 128.128906 232.910156 127.058594 231.398438 126.84375 229.660156 L 112.890625 118.03125 C 112.703125 116.542969 113.164062 115.046875 114.160156 113.921875 C 115.152344 112.796875 116.582031 112.152344 118.082031 112.152344 Z M 187.847656 112.152344 " fill-opacity="1" fill-rule="evenodd"/></g><path fill="#cfd8dc" d="M 177.382812 133.082031 C 180.273438 133.082031 182.617188 135.425781 182.617188 138.3125 L 182.617188 229.011719 C 182.617188 230.878906 181.625 232.601562 180.011719 233.539062 C 178.398438 234.472656 176.40625 234.480469 174.789062 233.554688 L 150.371094 219.601562 C 147.859375 218.167969 146.988281 214.972656 148.421875 212.460938 C 149.855469 209.953125 153.054688 209.082031 155.5625 210.515625 L 172.152344 219.996094 L 172.152344 138.3125 C 172.152344 135.425781 174.496094 133.082031 177.382812 133.082031 Z M 177.382812 133.082031 " fill-opacity="1" fill-rule="evenodd"/><path fill="#eceff1" d="M 193.082031 138.3125 C 193.082031 135.425781 195.425781 133.082031 198.316406 133.082031 L 233.199219 133.082031 C 236.089844 133.082031 238.429688 135.425781 238.429688 138.3125 C 238.429688 141.203125 236.089844 143.546875 233.199219 143.546875 L 203.546875 143.546875 L 203.546875 177.140625 L 228.574219 171.578125 C 230.207031 171.214844 231.910156 171.652344 233.167969 172.757812 C 234.421875 173.859375 235.074219 175.496094 234.921875 177.160156 L 231.433594 215.53125 C 231.269531 217.335938 230.183594 218.929688 228.5625 219.738281 L 200.65625 233.691406 C 198.070312 234.984375 194.925781 233.9375 193.632812 231.351562 C 192.34375 228.765625 193.390625 225.625 195.976562 224.332031 L 221.273438 211.679688 L 223.851562 183.347656 L 199.449219 188.769531 C 197.902344 189.113281 196.277344 188.738281 195.042969 187.746094 C 193.804688 186.75 193.082031 185.25 193.082031 183.664062 Z M 193.082031 138.3125 " fill-opacity="1" fill-rule="evenodd"/></svg>