<svg xmlns="http://www.w3.org/2000/svg" xmlns:xlink="http://www.w3.org/1999/xlink" width="500" zoomAndPan="magnify" viewBox="0 0 375 374.999991" height="500" preserveAspectRatio="xMidYMid meet" version="1.0"><defs><clipPath id="9156b90470"><path d="M 113 112.5 L 258 112.5 L 258 262.5 L 113 262.5 Z M 113 112.5 " clip-rule="nonzero"/></clipPath></defs><g clip-path="url(#9156b90470)"><path fill="#ffffff" d="M 256.988281 203.828125 C 256.363281 201.003906 253.800781 197.707031 248.628906 197.707031 C 247.570312 197.707031 246.414062 197.839844 245.101562 198.113281 C 242.6875 198.609375 240.628906 198.851562 238.820312 198.933594 C 252.910156 174.933594 262.058594 141.597656 253 130.023438 C 241.0625 114.773438 224.996094 112.496094 216.484375 112.496094 L 215.683594 112.5 C 212.515625 112.550781 209.230469 112.941406 205.921875 113.65625 L 193.707031 116.292969 C 192.042969 116.085938 190.351562 115.941406 188.585938 115.910156 L 188.425781 115.910156 L 187.910156 115.90625 C 182.476562 115.90625 177.523438 117.058594 173.109375 119.222656 L 168.84375 117.542969 C 162.980469 115.230469 154.160156 112.480469 145.433594 112.480469 C 144.941406 112.480469 144.453125 112.488281 143.960938 112.507812 C 135.363281 112.816406 127.980469 116.078125 122.605469 121.941406 C 115.894531 129.253906 112.839844 139.957031 113.53125 153.75 C 113.566406 154.460938 121.914062 225 145.566406 225 L 145.652344 225 L 145.871094 224.996094 C 148.941406 224.921875 151.871094 223.6875 154.609375 221.324219 C 156.699219 222.894531 159.402344 223.820312 161.921875 224.1875 C 163.585938 224.582031 166.578125 225.136719 170.164062 225.136719 C 174.542969 225.136719 178.488281 224.238281 181.890625 222.621094 C 181.886719 225.621094 181.871094 229.417969 181.835938 234.273438 L 181.835938 234.527344 L 181.851562 234.785156 C 182.183594 239.621094 183.015625 243.980469 184.273438 247.402344 C 187.859375 257.148438 194.046875 262.515625 201.699219 262.515625 C 202.015625 262.515625 202.339844 262.507812 202.667969 262.488281 C 208.960938 262.097656 215.339844 258.5625 219.726562 253.035156 C 224.476562 247.054688 225.574219 240.738281 225.996094 235.902344 L 226.023438 235.605469 L 226.023438 221.398438 L 226.375 221.433594 L 227.859375 221.5625 L 228.003906 221.578125 L 228.148438 221.585938 C 228.570312 221.605469 229.003906 221.613281 229.445312 221.613281 C 234.582031 221.613281 240.90625 220.277344 245.183594 218.289062 C 249.269531 216.394531 258.609375 211.1875 256.988281 203.828125 Z M 256.988281 203.828125 " fill-opacity="1" fill-rule="nonzero"/></g><path fill="#0277bd" d="M 219.203125 218.183594 C 219.203125 217.484375 219.246094 216.898438 219.265625 216.253906 C 219.230469 215.398438 219.203125 214.773438 219.203125 214.773438 C 219.203125 214.773438 219.246094 214.742188 219.3125 214.699219 C 219.820312 205.585938 222.335938 202.074219 225.023438 200.074219 C 224.648438 199.550781 224.214844 198.988281 223.808594 198.453125 C 222.675781 196.964844 221.261719 195.117188 219.746094 192.746094 L 219.46875 192.207031 C 219.238281 191.648438 218.6875 190.683594 217.984375 189.414062 C 213.949219 182.121094 205.558594 166.941406 211.300781 157.355469 C 213.816406 153.15625 218.535156 150.738281 225.351562 150.140625 C 222.566406 142.21875 212.128906 123.121094 188.472656 122.726562 C 188.464844 122.726562 188.457031 122.726562 188.449219 122.726562 C 167.855469 122.394531 161.089844 141.109375 158.886719 152.289062 C 161.921875 151.003906 165.386719 150.226562 168.554688 150.226562 C 168.601562 150.226562 168.65625 150.226562 168.703125 150.226562 C 176.507812 150.28125 181.878906 154.449219 183.441406 161.660156 C 184.582031 166.949219 185.128906 171.578125 185.117188 175.816406 C 185.082031 185.085938 183.214844 189.960938 181.566406 194.261719 L 181.039062 195.65625 C 180.617188 196.792969 180.171875 197.851562 179.746094 198.847656 C 179.316406 199.863281 178.941406 200.769531 178.664062 201.582031 C 180.3125 201.957031 181.609375 202.488281 182.5 202.878906 L 183.011719 203.101562 C 183.175781 203.171875 183.335938 203.25 183.480469 203.339844 C 186.371094 205.097656 188.171875 207.800781 188.558594 210.949219 C 188.765625 212.648438 188.730469 224.222656 188.660156 234.320312 C 188.957031 238.699219 189.699219 242.378906 190.679688 245.046875 C 192.074219 248.84375 195.558594 256.09375 202.25 255.679688 C 206.921875 255.386719 211.410156 252.546875 214.390625 248.796875 C 217.589844 244.769531 218.769531 240.316406 219.210938 235.300781 L 219.210938 218.183594 Z M 219.203125 218.183594 " fill-opacity="1" fill-rule="nonzero"/><path fill="#0277bd" d="M 158.230469 200.851562 C 152.730469 195.117188 150.050781 187.398438 151.058594 180.207031 C 152.027344 173.269531 151.480469 166.480469 151.183594 162.828125 C 151.085938 161.613281 151.019531 160.703125 151.023438 160.203125 C 151.023438 160.175781 151.03125 160.152344 151.03125 160.125 C 151.03125 160.113281 151.027344 160.101562 151.027344 160.085938 C 151.4375 149.789062 155.410156 133.539062 166.34375 123.882812 C 161.019531 121.785156 152.34375 119.023438 144.203125 119.316406 C 131.449219 119.78125 119.101562 128.605469 120.339844 153.410156 C 120.808594 162.714844 131.324219 218.53125 145.703125 218.183594 C 147.761719 218.128906 149.894531 216.8125 152.085938 214.171875 C 155.554688 210.003906 158.921875 206.222656 161.316406 203.589844 C 160.246094 202.777344 159.207031 201.875 158.230469 200.851562 Z M 232.917969 152.492188 C 232.96875 153.015625 232.925781 153.46875 232.84375 153.882812 C 232.949219 157.019531 232.613281 160.0625 232.269531 163.007812 C 232.015625 165.175781 231.757812 167.417969 231.683594 169.664062 C 231.613281 171.863281 231.925781 174.035156 232.25 176.332031 C 233.019531 181.710938 233.816406 187.78125 229.644531 194.867188 C 230.410156 195.875 231.085938 196.8125 231.625 197.71875 C 247.339844 172.238281 253.675781 141.945312 247.628906 134.222656 C 238.484375 122.535156 225.820312 119.15625 215.792969 119.316406 C 212.652344 119.371094 209.800781 119.792969 207.363281 120.320312 C 224.664062 128.707031 232.375 146.679688 232.917969 152.492188 Z M 246.476562 204.789062 C 237.390625 206.664062 233.023438 205.664062 230.902344 204.359375 C 230.558594 204.601562 230.21875 204.8125 229.902344 205.003906 C 228.632812 205.773438 226.625 206.992188 226.136719 214.488281 C 226.417969 214.542969 226.667969 214.574219 226.972656 214.640625 L 228.457031 214.773438 C 232.957031 214.976562 238.851562 213.714844 242.308594 212.109375 C 249.757812 208.652344 253.816406 203.273438 246.476562 204.789062 Z M 181.78125 211.769531 C 181.65625 210.753906 181.109375 209.933594 180.105469 209.273438 L 179.738281 209.113281 C 178.507812 208.570312 177.113281 207.953125 174.886719 207.953125 L 174.871094 207.953125 C 174.441406 207.988281 174.011719 208.019531 173.578125 208.019531 C 173.398438 208.019531 173.226562 207.996094 173.050781 207.988281 C 171.433594 209.234375 169.136719 210.195312 163.449219 211.363281 C 153.289062 213.949219 159.285156 217.003906 163.183594 217.480469 C 166.953125 218.425781 175.914062 219.574219 181.867188 214.722656 C 181.851562 213.195312 181.824219 212.144531 181.78125 211.769531 Z M 181.78125 211.769531 " fill-opacity="1" fill-rule="nonzero"/><path fill="#0277bd" d="M 177.207031 165.34375 C 176.210938 166.375 174.640625 167.273438 172.90625 166.996094 C 170.082031 166.539062 167.917969 163.132812 168.074219 161.851562 C 168.226562 160.578125 170.636719 159.914062 173.453125 160.371094 C 174.433594 160.53125 175.324219 160.808594 176.074219 161.148438 C 174.980469 158.800781 173.007812 157.449219 169.996094 157.117188 C 164.664062 156.523438 159 159.3125 157.863281 160.859375 C 157.886719 161.234375 157.929688 161.714844 157.972656 162.28125 C 158.289062 166.191406 158.878906 173.476562 157.804688 181.15625 C 157.09375 186.21875 159.144531 191.960938 163.144531 196.136719 C 165.726562 198.832031 168.738281 200.535156 171.710938 201.039062 C 172.089844 199.410156 172.765625 197.824219 173.460938 196.183594 C 173.847656 195.28125 174.253906 194.316406 174.640625 193.277344 L 175.191406 191.824219 C 176.703125 187.886719 178.261719 183.8125 178.292969 175.789062 C 178.304688 172.703125 177.925781 169.183594 177.207031 165.34375 Z M 225.5 177.296875 C 225.148438 174.8125 224.78125 172.238281 224.871094 169.445312 C 224.949219 166.914062 225.226562 164.53125 225.496094 162.222656 C 225.710938 160.40625 225.871094 158.660156 225.96875 156.9375 C 221.574219 157.300781 218.65625 158.570312 217.273438 160.714844 C 217.84375 160.519531 218.492188 160.367188 219.207031 160.273438 C 222.25 159.878906 224.46875 160.753906 224.722656 162.445312 C 224.910156 163.683594 223.863281 164.851562 223.402344 165.296875 C 222.457031 166.214844 221.265625 166.804688 220.058594 166.960938 C 219.839844 166.988281 219.617188 167 219.402344 167 C 218.199219 167 217.050781 166.589844 216.167969 165.976562 C 216.550781 172.703125 221.507812 181.699219 223.949219 186.117188 C 224.472656 187.058594 224.875 187.8125 225.207031 188.460938 C 226.546875 184.648438 226.054688 181.167969 225.5 177.296875 Z M 225.5 177.296875 " fill-opacity="1" fill-rule="nonzero"/></svg>