<svg xmlns="http://www.w3.org/2000/svg" xmlns:xlink="http://www.w3.org/1999/xlink" width="500" zoomAndPan="magnify" viewBox="0 0 375 374.999991" height="500" preserveAspectRatio="xMidYMid meet" version="1.0"><defs><clipPath id="eb1bcff4a7"><path d="M 120.375 112.5 L 254.625 112.5 L 254.625 262.5 L 120.375 262.5 Z M 120.375 112.5 " clip-rule="nonzero"/></clipPath></defs><g clip-path="url(#eb1bcff4a7)"><path fill="#0277bd" d="M 254.605469 112.5 L 120.394531 112.5 L 132.238281 246.710938 L 187.5 262.5 L 242.761719 246.710938 Z M 254.605469 112.5 " fill-opacity="1" fill-rule="nonzero"/></g><path fill="#039be5" d="M 187.5 124.34375 L 187.5 250.261719 L 231.710938 237.632812 L 241.578125 124.34375 Z M 187.5 124.34375 " fill-opacity="1" fill-rule="nonzero"/><path fill="#ffffff" d="M 223.421875 144.078125 L 187.5 144.078125 L 187.5 159.867188 L 206.84375 159.867188 L 205.65625 175.65625 L 187.5 175.65625 L 187.5 191.449219 L 204.867188 191.449219 L 203.683594 209.210938 L 187.5 214.738281 L 187.5 231.316406 L 218.683594 221.050781 L 221.449219 175.65625 Z M 223.421875 144.078125 " fill-opacity="1" fill-rule="nonzero"/><path fill="#eeeeee" d="M 187.5 144.078125 L 187.5 159.867188 L 152.367188 159.867188 L 151.183594 144.078125 Z M 169.34375 175.65625 L 170.132812 191.449219 L 187.5 191.449219 L 187.5 175.65625 Z M 170.921875 199.34375 L 155.132812 199.34375 L 156.316406 221.050781 L 187.5 231.316406 L 187.5 214.738281 L 171.316406 209.210938 Z M 170.921875 199.34375 " fill-opacity="1" fill-rule="nonzero"/></svg>