<svg xmlns="http://www.w3.org/2000/svg" xmlns:xlink="http://www.w3.org/1999/xlink" width="500" zoomAndPan="magnify" viewBox="0 0 375 374.999991" height="500" preserveAspectRatio="xMidYMid meet" version="1.0"><defs><clipPath id="59ff642124"><path d="M 112.5 112.5 L 262.5 112.5 L 262.5 262.5 L 112.5 262.5 Z M 112.5 112.5 " clip-rule="nonzero"/></clipPath></defs><g clip-path="url(#59ff642124)"><path fill="#f03c2e" d="M 259.667969 180.820312 L 194.179688 115.332031 C 193.730469 114.882812 193.242188 114.480469 192.714844 114.128906 C 192.1875 113.777344 191.632812 113.480469 191.046875 113.238281 C 190.460938 112.992188 189.855469 112.8125 189.234375 112.6875 C 188.613281 112.5625 187.984375 112.5 187.351562 112.5 C 186.714844 112.5 186.085938 112.5625 185.464844 112.6875 C 184.84375 112.8125 184.238281 112.992188 183.652344 113.238281 C 183.066406 113.480469 182.511719 113.777344 181.984375 114.128906 C 181.457031 114.480469 180.96875 114.882812 180.519531 115.332031 L 166.925781 128.925781 L 184.175781 146.175781 C 188.1875 144.769531 192.78125 145.730469 195.980469 148.925781 C 196.742188 149.6875 197.382812 150.542969 197.902344 151.484375 C 198.421875 152.425781 198.804688 153.421875 199.046875 154.472656 C 199.285156 155.523438 199.378906 156.585938 199.320312 157.660156 C 199.261719 158.734375 199.054688 159.78125 198.703125 160.800781 L 215.328125 177.425781 C 219.351562 176.039062 223.992188 176.933594 227.203125 180.15625 C 227.738281 180.6875 228.214844 181.269531 228.632812 181.898438 C 229.054688 182.523438 229.40625 183.1875 229.695312 183.886719 C 229.984375 184.582031 230.203125 185.300781 230.351562 186.042969 C 230.5 186.78125 230.574219 187.53125 230.574219 188.285156 C 230.574219 189.039062 230.5 189.789062 230.351562 190.527344 C 230.207031 191.269531 229.988281 191.988281 229.699219 192.6875 C 229.410156 193.382812 229.054688 194.046875 228.636719 194.675781 C 228.214844 195.300781 227.738281 195.882812 227.203125 196.417969 C 226.671875 196.949219 226.089844 197.425781 225.460938 197.847656 C 224.832031 198.265625 224.171875 198.621094 223.472656 198.910156 C 222.777344 199.199219 222.054688 199.417969 221.316406 199.5625 C 220.574219 199.710938 219.828125 199.785156 219.070312 199.785156 C 218.316406 199.78125 217.570312 199.710938 216.828125 199.5625 C 216.089844 199.414062 215.371094 199.195312 214.671875 198.90625 C 213.972656 198.617188 213.3125 198.261719 212.683594 197.84375 C 212.054688 197.421875 211.476562 196.945312 210.941406 196.410156 C 207.566406 193.035156 206.734375 188.066406 208.4375 183.910156 L 192.933594 168.402344 L 192.933594 209.207031 C 194.066406 209.769531 195.082031 210.492188 195.980469 211.382812 C 196.511719 211.917969 196.988281 212.496094 197.410156 213.125 C 197.828125 213.753906 198.183594 214.414062 198.472656 215.113281 C 198.761719 215.808594 198.976562 216.527344 199.125 217.269531 C 199.273438 218.007812 199.347656 218.757812 199.347656 219.511719 C 199.347656 220.265625 199.273438 221.011719 199.125 221.753906 C 198.976562 222.492188 198.761719 223.210938 198.472656 223.910156 C 198.183594 224.605469 197.828125 225.269531 197.410156 225.898438 C 196.988281 226.523438 196.511719 227.105469 195.980469 227.640625 C 195.445312 228.171875 194.867188 228.648438 194.238281 229.070312 C 193.609375 229.488281 192.949219 229.84375 192.25 230.128906 C 191.554688 230.417969 190.835938 230.636719 190.09375 230.785156 C 189.355469 230.933594 188.605469 231.003906 187.851562 231.003906 C 187.097656 231.003906 186.347656 230.933594 185.609375 230.785156 C 184.867188 230.636719 184.148438 230.417969 183.453125 230.128906 C 182.753906 229.84375 182.09375 229.488281 181.464844 229.070312 C 180.835938 228.648438 180.257812 228.171875 179.722656 227.640625 C 179.1875 227.105469 178.710938 226.523438 178.292969 225.898438 C 177.871094 225.269531 177.519531 224.609375 177.226562 223.910156 C 176.9375 223.214844 176.722656 222.496094 176.574219 221.753906 C 176.425781 221.011719 176.351562 220.265625 176.351562 219.511719 C 176.351562 218.757812 176.425781 218.007812 176.574219 217.269531 C 176.722656 216.527344 176.9375 215.808594 177.226562 215.109375 C 177.519531 214.414062 177.871094 213.75 178.292969 213.125 C 178.710938 212.496094 179.1875 211.917969 179.722656 211.382812 C 180.835938 210.277344 182.066406 209.4375 183.488281 208.875 L 183.488281 167.691406 C 182.117188 167.128906 180.835938 166.296875 179.722656 165.183594 C 178.917969 164.375 178.246094 163.46875 177.707031 162.464844 C 177.171875 161.457031 176.792969 160.394531 176.570312 159.277344 C 176.351562 158.15625 176.296875 157.03125 176.414062 155.894531 C 176.527344 154.761719 176.808594 153.667969 177.25 152.617188 L 160.234375 135.609375 L 115.328125 180.46875 C 114.878906 180.917969 114.476562 181.40625 114.125 181.933594 C 113.769531 182.460938 113.472656 183.015625 113.230469 183.601562 C 112.988281 184.1875 112.804688 184.792969 112.679688 185.414062 C 112.554688 186.039062 112.496094 186.667969 112.496094 187.300781 C 112.496094 187.933594 112.554688 188.5625 112.679688 189.1875 C 112.804688 189.808594 112.988281 190.414062 113.230469 191 C 113.472656 191.585938 113.769531 192.140625 114.125 192.667969 C 114.476562 193.195312 114.878906 193.683594 115.328125 194.132812 L 180.820312 259.617188 C 181.269531 260.066406 181.757812 260.464844 182.285156 260.820312 C 182.8125 261.171875 183.367188 261.46875 183.953125 261.710938 C 184.539062 261.953125 185.144531 262.136719 185.765625 262.261719 C 186.386719 262.386719 187.015625 262.445312 187.648438 262.445312 C 188.285156 262.445312 188.914062 262.386719 189.535156 262.261719 C 190.15625 262.136719 190.761719 261.953125 191.347656 261.710938 C 191.933594 261.46875 192.488281 261.171875 193.015625 260.820312 C 193.542969 260.464844 194.03125 260.066406 194.480469 259.617188 L 259.667969 194.53125 C 260.117188 194.082031 260.519531 193.59375 260.871094 193.066406 C 261.222656 192.539062 261.523438 191.984375 261.765625 191.398438 C 262.007812 190.8125 262.191406 190.207031 262.316406 189.585938 C 262.4375 188.960938 262.5 188.332031 262.5 187.699219 C 262.5 187.066406 262.4375 186.4375 262.316406 185.8125 C 262.191406 185.191406 262.007812 184.585938 261.765625 184 C 261.523438 183.414062 261.222656 182.859375 260.871094 182.332031 C 260.519531 181.804688 260.117188 181.316406 259.667969 180.867188 " fill-opacity="1" fill-rule="nonzero"/></g></svg>