<svg xmlns="http://www.w3.org/2000/svg" xmlns:xlink="http://www.w3.org/1999/xlink" width="500" zoomAndPan="magnify" viewBox="0 0 375 374.999991" height="500" preserveAspectRatio="xMidYMid meet" version="1.0"><defs><clipPath id="da94dbb5ec"><path d="M 121.875 113 L 253.125 113 L 253.125 262 L 121.875 262 Z M 121.875 113 " clip-rule="nonzero"/></clipPath></defs><g clip-path="url(#da94dbb5ec)"><path fill="#e44d26" d="M 133.789062 247.082031 L 121.835938 113.035156 L 253.164062 113.035156 L 241.199219 247.066406 L 187.417969 261.96875 Z M 133.789062 247.082031 " fill-opacity="1" fill-rule="nonzero"/></g><path fill="#f16529" d="M 230.957031 238.527344 L 241.183594 123.996094 L 187.5 123.996094 L 187.5 250.578125 Z M 230.957031 238.527344 " fill-opacity="1" fill-rule="nonzero"/><path fill="#ebebeb" d="M 187.445312 140.4375 L 146.273438 140.4375 L 150.707031 190.152344 L 187.5 190.152344 L 187.5 173.714844 L 165.746094 173.714844 L 164.242188 156.878906 L 187.5 156.878906 L 187.5 140.4375 Z M 187.5 216.355469 L 187.429688 216.375 L 169.121094 211.433594 L 167.957031 198.320312 L 151.445312 198.320312 L 153.746094 224.132812 L 187.425781 233.441406 L 187.5 233.417969 Z M 187.5 216.355469 " fill-opacity="1" fill-rule="nonzero"/><path fill="#ffffff" d="M 187.445312 190.152344 L 207.691406 190.152344 L 205.828125 211.46875 L 187.492188 216.417969 L 187.492188 233.519531 L 221.195312 224.179688 L 225.710938 173.703125 L 187.5 173.703125 Z M 228.234375 144.847656 L 228.625 140.4375 L 187.433594 140.4375 L 187.433594 156.875 L 227.144531 156.875 L 227.472656 153.179688 Z M 228.234375 144.847656 " fill-opacity="1" fill-rule="nonzero"/></svg>