<svg xmlns="http://www.w3.org/2000/svg" xmlns:xlink="http://www.w3.org/1999/xlink" width="500" zoomAndPan="magnify" viewBox="0 0 375 374.999991" height="500" preserveAspectRatio="xMidYMid meet" version="1.0"><defs><clipPath id="87254fd02b"><path d="M 112.5 120 L 262.5 120 L 262.5 255 L 112.5 255 Z M 112.5 120 " clip-rule="nonzero"/></clipPath></defs><g clip-path="url(#87254fd02b)"><path fill="#00d8ff" d="M 235.777344 163.976562 C 234.179688 163.429688 232.570312 162.921875 230.949219 162.457031 C 231.222656 161.34375 231.472656 160.246094 231.695312 159.167969 C 235.347656 141.457031 232.960938 127.1875 224.804688 122.492188 C 216.980469 117.988281 204.1875 122.683594 191.269531 133.910156 C 189.996094 135.019531 188.753906 136.160156 187.535156 137.332031 C 186.722656 136.554688 185.894531 135.789062 185.050781 135.042969 C 171.511719 123.035156 157.941406 117.976562 149.792969 122.6875 C 141.976562 127.203125 139.664062 140.617188 142.953125 157.402344 C 143.28125 159.066406 143.648438 160.71875 144.0625 162.363281 C 142.140625 162.910156 140.285156 163.488281 138.511719 164.105469 C 122.636719 169.632812 112.5 178.296875 112.5 187.28125 C 112.5 196.558594 123.382812 205.867188 139.917969 211.511719 C 141.257812 211.964844 142.609375 212.386719 143.96875 212.777344 C 143.527344 214.546875 143.136719 216.328125 142.792969 218.121094 C 139.65625 234.617188 142.105469 247.710938 149.898438 252.203125 C 157.949219 256.835938 171.460938 252.074219 184.613281 240.589844 C 185.683594 239.65625 186.726562 238.695312 187.742188 237.707031 C 189.058594 238.976562 190.410156 240.207031 191.796875 241.402344 C 204.539062 252.351562 217.125 256.773438 224.910156 252.273438 C 232.953125 247.625 235.566406 233.554688 232.171875 216.4375 C 231.90625 215.097656 231.605469 213.761719 231.273438 212.433594 C 232.222656 212.15625 233.15625 211.867188 234.0625 211.566406 C 251.25 205.878906 262.433594 196.683594 262.433594 187.28125 C 262.433594 178.261719 251.96875 169.542969 235.777344 163.976562 Z M 232.046875 205.492188 C 231.230469 205.765625 230.386719 206.027344 229.53125 206.28125 C 227.632812 200.28125 225.070312 193.902344 221.9375 187.3125 C 224.929688 180.878906 227.390625 174.578125 229.234375 168.621094 C 230.769531 169.0625 232.257812 169.53125 233.691406 170.023438 C 247.566406 174.792969 256.03125 181.847656 256.03125 187.28125 C 256.03125 193.066406 246.890625 200.582031 232.046875 205.492188 Z M 225.890625 217.679688 C 227.390625 225.25 227.605469 232.089844 226.609375 237.441406 C 225.71875 242.25 223.921875 245.453125 221.703125 246.738281 C 216.976562 249.46875 206.871094 245.917969 195.972656 236.554688 C 194.6875 235.445312 193.429688 234.300781 192.203125 233.121094 C 196.429688 228.503906 200.652344 223.140625 204.773438 217.183594 C 212.019531 216.542969 218.867188 215.492188 225.078125 214.058594 C 225.378906 215.257812 225.648438 216.464844 225.890625 217.679688 Z M 163.617188 246.265625 C 159 247.894531 155.324219 247.941406 153.101562 246.660156 C 148.371094 243.9375 146.40625 233.421875 149.085938 219.316406 C 149.40625 217.648438 149.769531 215.992188 150.179688 214.34375 C 156.324219 215.699219 163.121094 216.675781 170.386719 217.265625 C 174.535156 223.09375 178.878906 228.453125 183.257812 233.144531 C 182.328125 234.042969 181.375 234.921875 180.402344 235.773438 C 174.582031 240.851562 168.753906 244.453125 163.617188 246.265625 Z M 141.988281 205.457031 C 134.679688 202.960938 128.640625 199.71875 124.5 196.179688 C 120.78125 193 118.90625 189.84375 118.90625 187.28125 C 118.90625 181.828125 127.042969 174.875 140.621094 170.148438 C 142.269531 169.574219 143.992188 169.03125 145.78125 168.523438 C 147.65625 174.621094 150.117188 180.992188 153.089844 187.4375 C 150.082031 193.976562 147.585938 200.449219 145.6875 206.617188 C 144.445312 206.261719 143.214844 205.875 141.988281 205.457031 Z M 149.238281 156.175781 C 146.421875 141.792969 148.292969 130.945312 153 128.222656 C 158.019531 125.324219 169.109375 129.457031 180.800781 139.824219 C 181.5625 140.503906 182.3125 141.191406 183.050781 141.898438 C 178.691406 146.570312 174.390625 151.886719 170.277344 157.683594 C 163.226562 158.335938 156.476562 159.382812 150.269531 160.789062 C 149.886719 159.257812 149.542969 157.722656 149.238281 156.175781 Z M 213.914062 172.125 C 212.449219 169.59375 210.929688 167.097656 209.355469 164.636719 C 214.136719 165.238281 218.722656 166.042969 223.027344 167.023438 C 221.734375 171.15625 220.125 175.480469 218.226562 179.914062 C 216.839844 177.289062 215.402344 174.691406 213.914062 172.125 Z M 187.539062 146.46875 C 190.492188 149.664062 193.453125 153.234375 196.363281 157.105469 C 190.460938 156.828125 184.546875 156.828125 178.640625 157.101562 C 181.554688 153.265625 184.539062 149.703125 187.539062 146.46875 Z M 160.996094 172.167969 C 159.523438 174.714844 158.113281 177.296875 156.761719 179.910156 C 154.898438 175.492188 153.300781 171.148438 152 166.953125 C 156.277344 166 160.839844 165.214844 165.59375 164.625 C 164 167.101562 162.46875 169.617188 160.996094 172.167969 Z M 165.730469 210.390625 C 160.816406 209.84375 156.1875 209.101562 151.910156 208.171875 C 153.234375 203.902344 154.867188 199.46875 156.769531 194.953125 C 158.125 197.570312 159.542969 200.152344 161.019531 202.703125 C 162.539062 205.324219 164.113281 207.890625 165.730469 210.390625 Z M 187.714844 228.542969 C 184.679688 225.269531 181.652344 221.652344 178.695312 217.757812 C 181.566406 217.871094 184.492188 217.929688 187.46875 217.929688 C 190.523438 217.929688 193.542969 217.859375 196.519531 217.730469 C 193.597656 221.691406 190.652344 225.316406 187.714844 228.542969 Z M 218.289062 194.722656 C 220.292969 199.285156 221.980469 203.699219 223.324219 207.894531 C 218.976562 208.886719 214.28125 209.683594 209.335938 210.277344 C 210.921875 207.769531 212.457031 205.226562 213.9375 202.660156 C 215.449219 200.046875 216.898438 197.402344 218.289062 194.722656 Z M 208.390625 199.460938 C 206.121094 203.402344 203.722656 207.269531 201.199219 211.050781 C 196.628906 211.375 192.046875 211.535156 187.46875 211.535156 C 182.800781 211.535156 178.261719 211.386719 173.890625 211.105469 C 171.304688 207.328125 168.859375 203.457031 166.5625 199.496094 L 166.566406 199.496094 C 164.28125 195.558594 162.144531 191.535156 160.167969 187.433594 C 162.140625 183.332031 164.269531 179.304688 166.546875 175.363281 L 166.542969 175.363281 C 168.820312 171.417969 171.246094 167.5625 173.816406 163.804688 C 178.273438 163.46875 182.847656 163.292969 187.464844 163.292969 L 187.46875 163.292969 C 192.109375 163.292969 196.6875 163.46875 201.144531 163.808594 C 203.6875 167.5625 206.097656 171.40625 208.371094 175.328125 C 210.652344 179.261719 212.808594 183.269531 214.832031 187.34375 C 212.832031 191.457031 210.683594 195.5 208.390625 199.460938 Z M 221.605469 128.03125 C 226.625 130.925781 228.578125 142.585938 225.421875 157.878906 C 225.222656 158.851562 224.996094 159.847656 224.75 160.855469 C 218.527344 159.421875 211.773438 158.355469 204.703125 157.691406 C 200.582031 151.832031 196.3125 146.503906 192.027344 141.894531 C 193.148438 140.8125 194.300781 139.761719 195.476562 138.734375 C 206.546875 129.117188 216.890625 125.316406 221.605469 128.03125 Z M 187.46875 173.910156 C 194.863281 173.910156 200.855469 179.894531 200.855469 187.28125 C 200.855469 194.664062 194.863281 200.652344 187.46875 200.652344 C 180.074219 200.652344 174.078125 194.664062 174.078125 187.28125 C 174.078125 179.894531 180.074219 173.910156 187.46875 173.910156 Z M 187.46875 173.910156 " fill-opacity="1" fill-rule="nonzero"/></g></svg>